<svg xmlns="http://www.w3.org/2000/svg" viewBox="0 0 96 96" role="img" aria-label="Homing Bee">
  <defs>
    <linearGradient id="bee-body" x1="0" y1="0" x2="1" y2="1">
      <stop offset="0" stop-color="#fff477"/>
      <stop offset="1" stop-color="#ffb000"/>
    </linearGradient>
    <filter id="bee-glow" x="-50%" y="-50%" width="200%" height="200%">
      <feGaussianBlur stdDeviation="2.2" result="blur"/>
      <feMerge><feMergeNode in="blur"/><feMergeNode in="SourceGraphic"/></feMerge>
    </filter>
  </defs>
  <g filter="url(#bee-glow)" stroke="#10131d" stroke-linecap="round" stroke-linejoin="round" stroke-width="4">
    <path fill="#bff8ff" fill-opacity=".82" d="M43 38C27 35 19 22 28 15c10-7 20 5 23 18z"/>
    <path fill="#bff8ff" fill-opacity=".82" d="M53 38c15-7 28-1 27 10-1 12-18 12-28 3z"/>
    <ellipse cx="49" cy="51" fill="url(#bee-body)" rx="25" ry="19"/>
    <path d="M34 38c-5 7-7 15-5 23M48 32c-4 11-4 25 1 38M62 36c5 8 7 17 5 25" fill="none"/>
    <circle cx="68" cy="49" r="4" fill="#ff3fa4" stroke-width="2"/>
    <path d="m24 50-13 6 14 4M71 35l8-10M72 63l10 8" fill="none"/>
  </g>
</svg>
